<?xml version="1.0" encoding="UTF-8"?>
<svg id="a" data-name="main" xmlns="http://www.w3.org/2000/svg" viewBox="0 0 420.18 278.59">
  <defs>
    <style>
      .f {
        fill: #221e22;
      }

      .g {
        font-size: 83.58px;
      }

      .g, .h {
        fill: #fff;
        font-family: MyriadPro-Regular, 'Myriad Pro';
      }

      .i {
        letter-spacing: 0em;
      }

      .j {
        fill: #ffd400;
      }

      .h {
        font-size: 125.36px;
      }

      .k {
        fill: #f2f2f2;
        stroke: #1a1a1a;
        stroke-miterlimit: 10;
      }
    </style>
  </defs>
  <g id="b" data-name="book">
    <g id="c" data-name="page2">
      <g>
        <path class="k" d="m221.56,271.01c-34.6-10.49-71.53-10.49-106.12,0-1.63.49-2.95-.43-2.95-2.1,0-47.16,0-94.32,0-141.47,0-1.67,1.32-3.45,2.95-3.94,34.6-10.49,71.53-10.49,106.12,0,1.63.49,2.95,2.27,2.95,3.94,0,47.16,0,94.32,0,141.47,0,1.67-1.32,2.59-2.95,2.1Z"/>
        <path class="f" d="m160.92,163.11c-13.18.55-26.32,2.52-39.18,5.92-1.65.44-2.97-.54-2.97-2.21,0-12.24,0-24.48,0-36.72,0-1.67,1.33-3.4,2.97-3.83,12.86-3.4,26-5.38,39.18-5.92,1.69-.07,3.06,1.25,3.06,2.92v36.72c0,1.67-1.37,3.05-3.06,3.12Z"/>
        <path class="j" d="m160.92,210.81c-13.18.55-26.32,2.52-39.18,5.92-1.65.43-2.97-.54-2.97-2.21,0-12.24,0-24.48,0-36.72,0-1.67,1.33-3.4,2.97-3.83,12.86-3.4,26-5.38,39.18-5.92,1.69-.07,3.06,1.25,3.06,2.92v36.72c0,1.67-1.37,3.05-3.06,3.12Z"/>
        <path class="f" d="m160.92,258.52c-13.18.55-26.32,2.52-39.18,5.92-1.65.44-2.97-.54-2.97-2.21,0-12.24,0-24.48,0-36.72,0-1.67,1.33-3.4,2.97-3.83,12.86-3.4,26-5.38,39.18-5.92,1.69-.07,3.06,1.25,3.06,2.92v36.72c0,1.67-1.37,3.05-3.06,3.12Z"/>
        <path class="f" d="m215.26,264.44c-12.86-3.4-26-5.38-39.18-5.92-1.69-.07-3.06-1.45-3.06-3.12v-84.43c0-1.67,1.37-2.99,3.06-2.92,13.18.55,26.32,2.52,39.18,5.92,1.65.43,2.97,2.17,2.97,3.83v84.43c0,1.67-1.33,2.64-2.97,2.21Z"/>
        <path class="j" d="m215.26,169.03c-12.86-3.4-26-5.38-39.18-5.92-1.69-.07-3.06-1.45-3.06-3.12v-36.72c0-1.67,1.37-2.99,3.06-2.92,13.18.55,26.32,2.52,39.18,5.92,1.65.43,2.97,2.17,2.97,3.83v36.72c0,1.67-1.33,2.64-2.97,2.21Z"/>
      </g>
    </g>
    <g id="d" data-name="page1">
      <g>
        <path class="k" d="m109.56,271.01c-34.6-10.49-71.53-10.49-106.12,0-1.63.49-2.95-.43-2.95-2.1V127.44c0-1.67,1.32-3.45,2.95-3.94,34.6-10.49,71.53-10.49,106.12,0,1.63.49,2.95,2.27,2.95,3.94v141.47c0,1.67-1.32,2.59-2.95,2.1Z"/>
        <path class="f" d="m103.18,169.01c-30.65-8.09-62.88-8.08-93.52.04-1.65.44-2.97-.54-2.97-2.2v-36.72c0-1.67,1.33-3.4,2.97-3.83,30.64-8.12,62.88-8.14,93.52-.04,1.65.43,2.97,2.16,2.97,3.83,0,12.24,0,24.48,0,36.72,0,1.67-1.33,2.64-2.97,2.21Z"/>
        <path class="j" d="m48.84,210.82c-13.18.55-26.32,2.53-39.18,5.94-1.65.44-2.97-.54-2.97-2.2v-36.72c0-1.67,1.33-3.4,2.97-3.83,12.86-3.41,26-5.39,39.18-5.94,1.69-.07,3.06,1.25,3.06,2.92v36.72c0,1.67-1.37,3.05-3.06,3.12Z"/>
        <path class="f" d="m48.84,258.52c-13.18.55-26.32,2.53-39.18,5.94-1.65.44-2.97-.54-2.97-2.2v-36.72c0-1.67,1.33-3.4,2.97-3.83,12.86-3.41,26-5.39,39.18-5.94,1.69-.07,3.06,1.25,3.06,2.92v36.72c0,1.67-1.37,3.05-3.06,3.12Z"/>
        <path class="j" d="m103.18,264.42c-12.86-3.4-26-5.37-39.18-5.91-1.69-.07-3.06-1.45-3.06-3.12v-84.43c0-1.67,1.37-2.99,3.06-2.92,13.18.54,26.32,2.51,39.18,5.91,1.65.43,2.97,2.16,2.97,3.83,0,28.14,0,56.28,0,84.43,0,1.67-1.33,2.64-2.97,2.21Z"/>
      </g>
    </g>
  </g>
  <g id="e" data-name="title">
    <text class="h" transform="translate(20.14 104.93)"><tspan class="i" x="0" y="0">M</tspan><tspan x="101.54" y="0">anga</tspan></text>
    <text class="g" transform="translate(237.71 195.78)"><tspan x="0" y="0">dot</tspan></text>
  </g>
</svg>
